<svg xmlns="http://www.w3.org/2000/svg" width="79.224" height="96.743" viewBox="0 0 79.224 96.743">
  <g id="logo" transform="translate(-203.243 -66.465)">
    <path id="Path_1" data-name="Path 1" d="M214.521,87.5c0,11.609-2.522,21.022-5.64,21.022s-5.638-9.413-5.638-21.022,2.526-21.026,5.638-21.026S214.521,75.891,214.521,87.5Z" transform="translate(0 -0.008)" fill="#3b7b4c"/>
    <ellipse id="Ellipse_1" data-name="Ellipse 1" cx="5.64" cy="21.022" rx="5.64" ry="21.022" transform="translate(219.569 66.893)" fill="#3b7b4c"/>
    <path id="Path_2" data-name="Path 2" d="M308.035,88.65c0,11.613-2.526,21.022-5.64,21.022s-5.64-9.409-5.64-21.022,2.526-21.022,5.64-21.022S308.035,77.043,308.035,88.65Z" transform="translate(-59.096 -0.735)" fill="#3b7b4c"/>
    <path id="Path_3" data-name="Path 3" d="M352.908,87.487c0,11.611-2.528,21.024-5.642,21.024s-5.638-9.413-5.638-21.024,2.524-21.022,5.638-21.022S352.908,75.878,352.908,87.487Z" transform="translate(-87.455)" fill="#3b7b4c"/>
    <g id="Group_1" data-name="Group 1" transform="translate(204.59 116.2)">
      <path id="Path_4" data-name="Path 4" d="M213.749,209.9v-2.633h6.023v5.406a12.309,12.309,0,0,1-3.065,1.606,10.406,10.406,0,0,1-3.157.426,7.644,7.644,0,0,1-3.667-.769,5.253,5.253,0,0,1-2.2-2.29,7.538,7.538,0,0,1-.779-3.49,7.282,7.282,0,0,1,.854-3.606,5.519,5.519,0,0,1,2.5-2.329,8.086,8.086,0,0,1,3.458-.615,9.711,9.711,0,0,1,3.135.378,4.071,4.071,0,0,1,1.726,1.175,5.226,5.226,0,0,1,1.03,2.016l-3.752.677a2.057,2.057,0,0,0-.792-1.1,2.478,2.478,0,0,0-1.424-.381,2.556,2.556,0,0,0-2.055.9,4.321,4.321,0,0,0-.765,2.839,4.468,4.468,0,0,0,.771,2.948,2.693,2.693,0,0,0,2.147.884,4.05,4.05,0,0,0,1.248-.191,6.714,6.714,0,0,0,1.362-.65v-1.2Z" transform="translate(-206.904 -201.603)" fill="#3b7b4c"/>
      <path id="Path_5" data-name="Path 5" d="M253.981,214.867V202.229h6.5a9.458,9.458,0,0,1,2.762.311,2.927,2.927,0,0,1,1.54,1.15,3.564,3.564,0,0,1-1.1,5.093,4.7,4.7,0,0,1-1.372.5,3.939,3.939,0,0,1,1.012.467,4,4,0,0,1,.621.668,5.031,5.031,0,0,1,.545.788l1.9,3.661h-4.408L259.9,211a2.97,2.97,0,0,0-.7-.975,1.638,1.638,0,0,0-.954-.294H257.9v5.134Zm3.916-7.537h1.644a5.777,5.777,0,0,0,1.033-.17,1.044,1.044,0,0,0,.633-.4,1.174,1.174,0,0,0,.245-.734,1.162,1.162,0,0,0-.387-.938,2.35,2.35,0,0,0-1.456-.327H257.9Z" transform="translate(-236.655 -201.999)" fill="#3b7b4c"/>
      <path id="Path_6" data-name="Path 6" d="M296.8,202.229h10.433v2.7h-6.516v2.008h6.055V209.5h-6.055V212h6.714v2.863H296.8Z" transform="translate(-263.718 -201.999)" fill="#3b7b4c"/>
      <path id="Path_7" data-name="Path 7" d="M337.139,202.229h10.433v2.7h-6.516v2.008h6.055V209.5h-6.055V212h6.714v2.863H337.139Z" transform="translate(-289.208 -201.999)" fill="#3b7b4c"/>
      <path id="Path_8" data-name="Path 8" d="M377.565,202.229h3.627l4.766,7v-7h3.686v12.638h-3.686l-4.739-6.963v6.963h-3.654Z" transform="translate(-314.756 -201.999)" fill="#3b7b4c"/>
    </g>
    <g id="Group_2" data-name="Group 2" transform="translate(206.224 137.22)">
      <path id="Path_9" data-name="Path 9" d="M213.586,264.719l-.981,2.588h-1.263l3.213-8.226h1.473l3.23,8.226h-1.307l-1.01-2.588Zm3.1-.831-.94-2.367c-.2-.537-.337-1.025-.477-1.5h-.043c-.126.475-.28.987-.463,1.489l-.926,2.378Z" transform="translate(-211.342 -258.947)" fill="#3b7b4c"/>
      <path id="Path_10" data-name="Path 10" d="M236.621,259.1a14.651,14.651,0,0,1,2.343-.183,4.316,4.316,0,0,1,2.752.685,1.931,1.931,0,0,1,.743,1.561,2.235,2.235,0,0,1-1.781,2.086v.037a2.158,2.158,0,0,1,1.388,1.66,13.326,13.326,0,0,0,.716,2.258h-1.263a9.093,9.093,0,0,1-.617-1.966,1.763,1.763,0,0,0-1.909-1.6h-1.15V267.2h-1.222Zm1.222,3.735h1.248c1.3,0,2.133-.623,2.133-1.563,0-1.061-.884-1.524-2.176-1.524a5.793,5.793,0,0,0-1.205.1Z" transform="translate(-227.318 -258.841)" fill="#3b7b4c"/>
      <path id="Path_11" data-name="Path 11" d="M262.883,266.82a6.807,6.807,0,0,1-2.5.391c-2.666,0-4.659-1.465-4.659-4.174,0-2.588,2.008-4.32,4.941-4.32a5.75,5.75,0,0,1,2.244.366l-.309.866a4.883,4.883,0,0,0-1.894-.342c-2.217,0-3.69,1.232-3.69,3.392,0,2.026,1.333,3.308,3.62,3.308a5.556,5.556,0,0,0,2.007-.341Z" transform="translate(-239.391 -258.717)" fill="#3b7b4c"/>
      <path id="Path_12" data-name="Path 12" d="M280.563,259.081v3.441h4.575v-3.441h1.234v8.226h-1.234V263.45h-4.575v3.857h-1.236v-8.226Z" transform="translate(-254.306 -258.947)" fill="#3b7b4c"/>
      <path id="Path_13" data-name="Path 13" d="M305.423,259.081v8.226h-1.237v-8.226Z" transform="translate(-270.016 -258.947)" fill="#3b7b4c"/>
      <path id="Path_14" data-name="Path 14" d="M313.283,259.984h-2.876v-.9h7v.9h-2.889v7.322h-1.237Z" transform="translate(-273.948 -258.947)" fill="#3b7b4c"/>
      <path id="Path_15" data-name="Path 15" d="M337.153,263.45h-3.664v2.964h4.1v.893h-5.334v-8.226h5.122v.891h-3.888v2.6h3.664Z" transform="translate(-287.755 -258.947)" fill="#3b7b4c"/>
      <path id="Path_16" data-name="Path 16" d="M356.684,266.82a6.8,6.8,0,0,1-2.5.391c-2.668,0-4.661-1.465-4.661-4.174,0-2.588,2.008-4.32,4.94-4.32a5.759,5.759,0,0,1,2.246.366l-.308.866a4.9,4.9,0,0,0-1.895-.342c-2.217,0-3.692,1.232-3.692,3.392,0,2.026,1.333,3.308,3.62,3.308a5.551,5.551,0,0,0,2.008-.341Z" transform="translate(-298.67 -258.717)" fill="#3b7b4c"/>
      <path id="Path_17" data-name="Path 17" d="M373.111,259.984h-2.878v-.9h7v.9h-2.892v7.322h-1.234Z" transform="translate(-311.756 -258.947)" fill="#3b7b4c"/>
      <path id="Path_18" data-name="Path 18" d="M390.917,265.783a4.617,4.617,0,0,0,2.177.537c1.248,0,1.978-.562,1.978-1.405,0-.755-.506-1.207-1.783-1.623-1.543-.487-2.5-1.2-2.5-2.343,0-1.282,1.22-2.232,3.059-2.232a4.8,4.8,0,0,1,2.078.4l-.337.868a3.913,3.913,0,0,0-1.782-.391c-1.292,0-1.784.671-1.784,1.232,0,.77.577,1.148,1.883,1.586,1.6.549,2.4,1.209,2.4,2.417,0,1.269-1.065,2.38-3.3,2.38a5.481,5.481,0,0,1-2.415-.537Z" transform="translate(-324.623 -258.717)" fill="#3b7b4c"/>
    </g>
    <g id="Group_4" data-name="Group 4" transform="translate(205.027 150.545)">
      <rect id="Rectangle_1" data-name="Rectangle 1" width="75.968" height="12.663" fill="#3b7b4c"/>
      <g id="Group_3" data-name="Group 3" transform="translate(3.307 3.84)">
        <path id="Path_19" data-name="Path 19" d="M218.01,305.649v6.494h-.934v-6.494Z" transform="translate(-217.076 -305.542)" fill="#fcfbf4"/>
        <path id="Path_20" data-name="Path 20" d="M223.99,312.143v-6.494h1.018l2.277,3.285a16.666,16.666,0,0,1,1.271,2.11l.033-.01a26.3,26.3,0,0,1-.107-2.66v-2.725h.87v6.494h-.934l-2.267-3.3a18.394,18.394,0,0,1-1.325-2.168l-.033.01c.054.819.064,1.6.064,2.678v2.775Z" transform="translate(-221.445 -305.542)" fill="#fcfbf4"/>
        <path id="Path_21" data-name="Path 21" d="M242.89,306.363h-2.172v-.714h5.288v.714h-2.182v5.78h-.934Z" transform="translate(-232.017 -305.542)" fill="#fcfbf4"/>
        <path id="Path_22" data-name="Path 22" d="M260.915,309.1h-2.765v2.341h3.094v.7h-4.027v-6.494h3.869v.7h-2.935v2.053h2.765Z" transform="translate(-242.444 -305.542)" fill="#fcfbf4"/>
        <path id="Path_23" data-name="Path 23" d="M271.413,305.664a10.558,10.558,0,0,1,1.771-.144,3.16,3.16,0,0,1,2.078.539,1.552,1.552,0,0,1,.562,1.232,1.743,1.743,0,0,1-1.347,1.647v.029a1.683,1.683,0,0,1,1.049,1.311,11.02,11.02,0,0,0,.541,1.783h-.955a7.42,7.42,0,0,1-.465-1.551c-.212-.9-.6-1.234-1.442-1.263h-.868v2.814h-.923Zm.923,2.947h.943c.985,0,1.61-.491,1.61-1.232,0-.839-.666-1.206-1.641-1.206a4.17,4.17,0,0,0-.912.078Z" transform="translate(-251.415 -305.46)" fill="#fcfbf4"/>
        <path id="Path_24" data-name="Path 24" d="M286.906,312.143v-6.494h1.018l2.277,3.285a16.965,16.965,0,0,1,1.273,2.11l.03-.01a26.34,26.34,0,0,1-.1-2.66v-2.725h.868v6.494h-.932l-2.269-3.3a18.391,18.391,0,0,1-1.325-2.168l-.031.01c.053.819.064,1.6.064,2.678v2.775Z" transform="translate(-261.206 -305.542)" fill="#fcfbf4"/>
        <path id="Path_25" data-name="Path 25" d="M306.083,310.1l-.743,2.043h-.952l2.425-6.494h1.113l2.437,6.494h-.985l-.763-2.043Zm2.341-.656-.709-1.868c-.148-.424-.253-.81-.36-1.184h-.031c-.1.374-.212.779-.349,1.174l-.7,1.878Z" transform="translate(-272.255 -305.542)" fill="#fcfbf4"/>
        <path id="Path_26" data-name="Path 26" d="M321.159,306.363h-2.172v-.714h5.288v.714h-2.184v5.78h-.932Z" transform="translate(-281.48 -305.542)" fill="#fcfbf4"/>
        <path id="Path_27" data-name="Path 27" d="M336.417,305.649v6.494h-.932v-6.494Z" transform="translate(-291.907 -305.542)" fill="#fcfbf4"/>
        <path id="Path_28" data-name="Path 28" d="M344.454,312.064a3.1,3.1,0,0,1-3.211-3.294,3.208,3.208,0,0,1,3.307-3.412,3.084,3.084,0,0,1,3.222,3.287,3.176,3.176,0,0,1-3.308,3.419Zm.043-.683c1.462,0,2.289-1.224,2.289-2.7a2.4,2.4,0,0,0-2.279-2.639c-1.536,0-2.3,1.3-2.3,2.707a2.4,2.4,0,0,0,2.279,2.631Z" transform="translate(-295.545 -305.358)" fill="#fcfbf4"/>
        <path id="Path_29" data-name="Path 29" d="M362.235,312.143v-6.494h1.018l2.277,3.285a16.915,16.915,0,0,1,1.274,2.11l.031-.01a26.2,26.2,0,0,1-.1-2.66v-2.725h.867v6.494h-.931l-2.269-3.3a18.341,18.341,0,0,1-1.325-2.168l-.031.01c.051.819.063,1.6.063,2.678v2.775Z" transform="translate(-308.812 -305.542)" fill="#fcfbf4"/>
        <path id="Path_30" data-name="Path 30" d="M381.409,310.1l-.743,2.043h-.954l2.427-6.494h1.113l2.438,6.494H384.7l-.763-2.043Zm2.341-.656-.71-1.868c-.148-.424-.253-.81-.36-1.184h-.03c-.1.374-.212.779-.35,1.174l-.7,1.878Z" transform="translate(-319.857 -305.542)" fill="#fcfbf4"/>
        <path id="Path_31" data-name="Path 31" d="M398.776,305.649h.934v5.79h3.051v.7h-3.984Z" transform="translate(-331.904 -305.542)" fill="#fcfbf4"/>
      </g>
    </g>
    <path id="Path_32" data-name="Path 32" d="M399.137,88.741c0,11.607-2.527,21.022-5.641,21.022s-5.64-9.415-5.64-21.022,2.526-21.024,5.64-21.024S399.137,77.13,399.137,88.741Z" transform="translate(-116.669 -0.791)" fill="#3b7b4c"/>
  </g>
</svg>
