<svg xmlns="http://www.w3.org/2000/svg" width="428.428" height="428.428" viewBox="0 0 428.428 428.428">
  <path id="icon-phone" d="M416.208,302.749l-93.72-40.166a20.083,20.083,0,0,0-23.43,5.774l-41.5,50.709A310.162,310.162,0,0,1,109.284,170.8l50.709-41.5a20.033,20.033,0,0,0,5.774-23.43L125.6,12.143A20.217,20.217,0,0,0,102.59.511L15.564,20.594A20.083,20.083,0,0,0,0,40.167C0,254.8,173.967,428.434,388.268,428.434a20.083,20.083,0,0,0,19.581-15.564l20.083-87.026a20.325,20.325,0,0,0-11.723-23.1Z" transform="translate(0 -0.006)"/>
</svg>
