<svg xmlns="http://www.w3.org/2000/svg" width="463.828" height="358.391" viewBox="0 0 463.828 358.391">
  <path id="icon-email" d="M455.041,182.344a5.442,5.442,0,0,1,8.787,4.387V377.592c0,24.733-19.477,44.8-43.484,44.8H43.484C19.477,422.391,0,402.324,0,377.592V186.823a5.407,5.407,0,0,1,8.787-4.387c20.292,16.24,47.2,36.866,139.6,106.024,19.115,14.373,51.365,44.612,83.525,44.426,32.341.28,65.226-30.613,83.616-44.426C407.933,219.3,434.748,198.583,455.041,182.344ZM231.914,302.927c21.017.373,51.275-27.253,66.494-38.639,120.215-89.878,129.365-97.717,157.086-120.117a22.585,22.585,0,0,0,8.334-17.64V108.8c0-24.733-19.477-44.8-43.484-44.8H43.484C19.477,64,0,84.066,0,108.8v17.733a22.724,22.724,0,0,0,8.334,17.64C36.055,166.477,45.205,174.41,165.42,264.288c15.219,11.386,45.477,39.012,66.494,38.639Z" transform="translate(0 -64)"/>
</svg>
