<svg xmlns="http://www.w3.org/2000/svg" width="23.314" height="23.314" viewBox="0 0 23.314 23.314">
  <path id="in" d="M21.2,32H2.113A2.114,2.114,0,0,0,0,34.113V53.2a2.114,2.114,0,0,0,2.113,2.113H21.2A2.114,2.114,0,0,0,23.314,53.2V34.113A2.114,2.114,0,0,0,21.2,32ZM9.164,37.912a1.4,1.4,0,1,1-2.795.021A1.4,1.4,0,0,1,9.164,37.912Zm8.155,12.042c-3.414,0-1.775-3.851-1.3-5.548.734-2.415-2.352-3.07-3.117.036l-1.343,5.376H9.211l.422-1.691c-1.639,2.7-4.923,2.311-4.923-.224.005-.744.047-.729,1.2-5.417H4.252l.5-1.853H8.732c-1.749,6.958-1.7,6.6-1.712,7.192,0,1.088,2.128.7,2.987-1.207l1.03-4.132H9.357l.5-1.853h3.58l-.463,2.108c2.108-3.929,6.656-2.488,5.3,1.978a15.159,15.159,0,0,0-.775,3.06c0,.807.911,1.176,1.655-.879l.932.349C19.541,49.158,18.558,49.954,17.319,49.954Z" transform="translate(0 -32)" fill="#182937"/>
</svg>
