<svg xmlns="http://www.w3.org/2000/svg" width="23.314" height="23.314" viewBox="0 0 23.314 23.314">
  <path id="instagram" d="M11.657,40.881a2.776,2.776,0,1,0,2.777,2.776A2.776,2.776,0,0,0,11.657,40.881Zm6.49-2.134a2.81,2.81,0,0,0-1.583-1.583c-1.093-.431-3.695-.335-4.907-.335s-3.812-.1-4.908.335a2.81,2.81,0,0,0-1.583,1.583c-.431,1.093-.335,3.7-.335,4.909s-.1,3.813.337,4.909a2.81,2.81,0,0,0,1.583,1.583c1.093.431,3.695.335,4.908.335s3.811.1,4.907-.335a2.81,2.81,0,0,0,1.583-1.583c.435-1.093.335-3.7.335-4.909s.1-3.812-.335-4.909Zm-6.49,9.177a4.262,4.262,0,1,1,3.019-1.248,4.267,4.267,0,0,1-3.019,1.248ZM16.1,40.207a.99.99,0,1,1,.706-.291,1,1,0,0,1-.706.291ZM20.816,32H2.5A2.5,2.5,0,0,0,0,34.5V52.816a2.5,2.5,0,0,0,2.5,2.5H20.816a2.5,2.5,0,0,0,2.5-2.5V34.5a2.5,2.5,0,0,0-2.5-2.5Zm-.891,15.092a4.951,4.951,0,0,1-1.345,3.487,4.954,4.954,0,0,1-3.487,1.345c-1.374.078-5.495.078-6.869,0a4.961,4.961,0,0,1-3.487-1.345,4.937,4.937,0,0,1-1.345-3.487c-.078-1.375-.078-5.5,0-6.869a4.936,4.936,0,0,1,1.345-3.487,4.963,4.963,0,0,1,3.487-1.342c1.374-.078,5.495-.078,6.869,0a4.955,4.955,0,0,1,3.487,1.345,4.954,4.954,0,0,1,1.345,3.489C20,41.6,20,45.716,19.925,47.092Z" transform="translate(0 -32)" fill="#182937"/>
</svg>
