<svg xmlns="http://www.w3.org/2000/svg" width="14.911" height="12.781" viewBox="0 0 14.911 12.781">
  <path id="next" d="M7.156,65.182l-.236.236a.4.4,0,0,0,0,.566l3.861,3.841H.4a.4.4,0,0,0-.4.4v.333a.4.4,0,0,0,.4.4H10.781L6.923,74.8a.4.4,0,0,0,0,.566l.236.236a.4.4,0,0,0,.566,0l4.943-4.926a.4.4,0,0,0,0-.566L7.722,65.182A.4.4,0,0,0,7.156,65.182Zm7.755-.782V76.382a.4.4,0,0,1-.4.4h-.266a.4.4,0,0,1-.4-.4V64.4a.4.4,0,0,1,.4-.4h.266A.4.4,0,0,1,14.911,64.4Z" transform="translate(0 -64)" fill="#3b7b4c"/>
</svg>
