<svg xmlns="http://www.w3.org/2000/svg" width="23.496" height="23.496" viewBox="0 0 23.496 23.496">
  <path id="pintorest" d="M23.5,34.517V52.979A2.518,2.518,0,0,1,20.979,55.5H8.1a13.439,13.439,0,0,0,1.437-3.11c.157-.6.8-3.063.8-3.063A3.443,3.443,0,0,0,13.29,50.8c3.886,0,6.682-3.572,6.682-8.009,0-4.253-3.472-7.437-7.94-7.437-5.559,0-8.507,3.729-8.507,7.794,0,1.888,1.007,4.238,2.612,4.988.246.115.372.063.43-.173.042-.178.262-1.054.357-1.458a.38.38,0,0,0-.089-.367,5.02,5.02,0,0,1-.96-2.937,5.575,5.575,0,0,1,5.816-5.591,5.086,5.086,0,0,1,5.381,5.239c0,3.482-1.757,5.9-4.049,5.9a1.873,1.873,0,0,1-1.909-2.329,26.026,26.026,0,0,0,1.065-4.29c0-2.78-3.96-2.4-3.96,1.311A4.706,4.706,0,0,0,8.6,45.353c-1.647,6.965-1.893,7.054-1.552,10.1l.115.042H2.517A2.518,2.518,0,0,1,0,52.979V34.517A2.518,2.518,0,0,1,2.517,32H20.979A2.518,2.518,0,0,1,23.5,34.517Z" transform="translate(0 -32)" fill="#182937"/>
</svg>
