<svg xmlns="http://www.w3.org/2000/svg" width="23.314" height="23.314" viewBox="0 0 23.314 23.314">
  <path id="youtube" d="M9.721,40.852l4.954,2.815L9.721,46.483ZM23.314,34.5V52.816a2.5,2.5,0,0,1-2.5,2.5H2.5a2.5,2.5,0,0,1-2.5-2.5V34.5A2.5,2.5,0,0,1,2.5,32H20.816A2.5,2.5,0,0,1,23.314,34.5Zm-2.186,9.175a25.006,25.006,0,0,0-.4-4.59A2.375,2.375,0,0,0,19.057,37.4a55.884,55.884,0,0,0-7.4-.4,55.883,55.883,0,0,0-7.4.4,2.375,2.375,0,0,0-1.676,1.686,26.832,26.832,0,0,0,0,9.18,2.341,2.341,0,0,0,1.676,1.66,56.611,56.611,0,0,0,7.4.4,55.883,55.883,0,0,0,7.4-.4,2.341,2.341,0,0,0,1.676-1.66,24.929,24.929,0,0,0,.4-4.585Z" transform="translate(0 -32)" fill="#182937"/>
</svg>
